<?xml version="1.0" encoding="UTF-8"?>
<svg id="Layer_1" xmlns="http://www.w3.org/2000/svg" version="1.1" viewBox="0 0 254.2 254.2">
	<defs>
		<style>
			.st0 {
			fill: #449b38;
			}

			.st1 {
			fill: #ffc336;
			}

			.st2 {
			fill: #c89318;
			}

			.st3 {
			fill: #62c751;
			}

			.st4 {
			fill: #eab028;
			}
		</style>
	</defs>
	<rect class="st0" y="54.6" width="254.2" height="130.7"/>
	<path class="st3" d="M213.5,73.5H40.8c0,12.1-9.8,21.9-21.9,21.9v49.2c12.1,0,21.9,9.8,21.9,21.9h172.7c0-.2,0-.4,0-.7,0-12.1,9.8-21.9,21.9-21.9v-49.2c-11.8,0-21.5-9.4-21.8-21.2Z"/>
	<circle class="st0" cx="127.1" cy="120" r="38.9"/>
	<circle class="st0" cx="67" cy="120" r="7.8"/>
	<circle class="st0" cx="187.2" cy="120" r="7.8" transform="translate(38.8 285.5) rotate(-80.8)"/>
	<path class="st3" d="M126.8,140.4c-5.9,0-11.2-3.1-13.3-8l7.7-3.5c.8,1.8,3.1,3,5.6,3s4.8-1.2,5.6-3c.3-.6.3-1.2.2-1.5-.2-.5-1.4-1.9-6.7-3.5-4.4-1.3-9.7-3.4-11.9-7.9-.9-1.8-1.5-4.7,0-8.5,2.2-5,7.5-8.1,13.4-8.1s11.2,3.1,13.3,8l-7.7,3.5c-.8-1.8-3.1-3-5.6-3s-4.8,1.2-5.6,3c-.3.6-.3,1.2-.2,1.5.2.5,1.4,1.9,6.7,3.5,4.4,1.3,9.7,3.4,11.9,7.9.9,1.8,1.5,4.7,0,8.5-2.2,5-7.5,8.1-13.4,8.1Z"/>
	<rect class="st3" x="122.6" y="136.2" width="8.5" height="9.8"/>
	<rect class="st3" x="122.6" y="93.9" width="8.5" height="9.8"/>
	<circle class="st3" cx="24.4" cy="78.8" r="5.5"/>
	<circle class="st3" cx="24.4" cy="161" r="5.5"/>
	<circle class="st3" cx="229.8" cy="78.9" r="5.5"/>
	<circle class="st3" cx="229.8" cy="161.1" r="5.5"/>
	<circle class="st4" cx="217.7" cy="166.6" r="29.5"/>
	<circle class="st1" cx="217.7" cy="166.6" r="23.9"/>
	<path class="st2" d="M217.5,179.1c-3.6,0-6.9-1.9-8.2-4.9l4.8-2.1c.5,1.1,1.9,1.8,3.4,1.8s3-.8,3.4-1.8c.2-.4.2-.7.1-.9-.1-.3-.9-1.1-4.1-2.1-2.7-.8-6-2.1-7.3-4.9-.5-1.1-.9-2.9,0-5.2,1.4-3.1,4.6-5,8.2-5s6.9,1.9,8.2,4.9l-4.8,2.1c-.5-1.1-1.9-1.8-3.4-1.8s-3,.8-3.4,1.8c-.2.4-.2.7-.1.9.1.3.9,1.1,4.1,2.1,2.7.8,6,2.1,7.3,4.9.5,1.1.9,2.9,0,5.2-1.4,3.1-4.6,5-8.2,5Z"/>
	<rect class="st2" x="214.9" y="176.5" width="5.2" height="6"/>
	<rect class="st2" x="214.9" y="150.6" width="5.2" height="6"/>
	<circle class="st4" cx="170.6" cy="183.1" r="29.5" transform="translate(-37.5 322.1) rotate(-80.8)"/>
	<circle class="st1" cx="170.5" cy="183.1" r="23.9"/>
	<path class="st2" d="M170.3,195.7c-3.6,0-6.9-1.9-8.2-4.9l4.8-2.1c.5,1.1,1.9,1.8,3.4,1.8s3-.8,3.4-1.8c.2-.4.2-.7.1-.9-.1-.3-.9-1.1-4.1-2.1-2.7-.8-6-2.1-7.3-4.9-.5-1.1-.9-2.9,0-5.2,1.4-3.1,4.6-5,8.2-5s6.9,1.9,8.2,4.9l-4.8,2.1c-.5-1.1-1.9-1.8-3.4-1.8s-3,.8-3.4,1.8c-.2.4-.2.7-.1.9.1.3.9,1.1,4.1,2.1,2.7.8,6,2.1,7.3,4.9.5,1.1.9,2.9,0,5.2-1.4,3.1-4.6,5-8.2,5Z"/>
	<rect class="st2" x="167.7" y="193.1" width="5.2" height="6"/>
	<rect class="st2" x="167.7" y="167.1" width="5.2" height="6"/>
	<circle class="st4" cx="214.8" cy="205.6" r="29.5"/>
	<circle class="st1" cx="214.8" cy="205.6" r="23.9"/>
	<path class="st2" d="M214.6,218.2c-3.6,0-6.9-1.9-8.2-4.9l4.8-2.1c.5,1.1,1.9,1.8,3.4,1.8s3-.8,3.4-1.8c.2-.4.2-.7.1-.9-.1-.3-.9-1.1-4.1-2.1-2.7-.8-6-2.1-7.3-4.9-.5-1.1-.9-2.9,0-5.2,1.4-3.1,4.6-5,8.2-5s6.9,1.9,8.2,4.9l-4.8,2.1c-.5-1.1-1.9-1.8-3.4-1.8s-3,.8-3.4,1.8c-.2.4-.2.7-.1.9.1.3.9,1.1,4.1,2.1,2.7.8,6,2.1,7.3,4.9.5,1.1.9,2.9,0,5.2-1.4,3.1-4.6,5-8.2,5Z"/>
	<rect class="st2" x="212" y="215.6" width="5.2" height="6"/>
	<rect class="st2" x="212" y="189.6" width="5.2" height="6"/>
</svg>