<?xml version="1.0" encoding="UTF-8"?>
<svg id="Layer_1" xmlns="http://www.w3.org/2000/svg" version="1.1" viewBox="0 0 794.2 709.2">
  <defs>
    <style>
      .st0 { fill: #ffbcad; }
      .st1 { fill: #a5371b; }
      .st2 { fill: #ef562f; }
      .st3 { fill: #fff1ee; }
    </style>
  </defs>
  <path class="st1" d="M224.6.3c19.7-2.1,21,5.6,32.9,16.8,31.6,29.7,51.5,53.3,75.6,88.2,13.2,2,26,4.3,39,7.1,14.3-24.9,83.3-124.7,119.8-86.4,16.2,17.1,20.6,122.9,19.9,145.7,6.3,2.1,12.3,7.6,17.5,11.6,38.6,29.6,67,71.7,86.9,115.6,6.3,13.9,9.9,32.5,16.7,44.7,17.1,30.5,92.4,88,120.9,96,66.7-5.6,39,51.6,2.7,79.7-21,16.3-45.5,27.3-70.7,35.4-88.1,28.3-128.3,3.6-209.5-6.8-29.5-5.6-60.1-8.1-89.8-3.1-74.2,12.7-144.9,71.1-130.8,152.5,5.3,30.5-38.3-7.7-45-13.1-71-56.5-130.1-137-161.4-222.5-4.7-12.7-8.6-26.8-16.3-38.1-19.8-29-43.1.3-27.7-41.9,7.9-21.8,20.2-40,38.4-54.5-12.9-2.9-23.9-7.5-33.2-17.2-15.2-15.8-5.3-17.3,7.6-23.3,37.2-17.3,85.3-61.5,114.8-89.1,9.1-8.5,17.6-18.1,27.1-26,4.3-50.2,15-93.1,36.4-138.8,7.3-15.6,9.6-29.2,28.6-32.7ZM244.9,23.9c-39.4,79.1-45.3,173.4-15.5,256.8,20.9-14.8,54.2-47.1,67.1-69.1,0-44.4-15.2-87-39.9-123.4-1.2-1.8-6.8-8.5-6.6-10,31.8,27.1,53.1,95.8,52.8,135.8-31.2,53.9-98.1,99.2-157.8,118.8,12.2,11.8,24.8,21.7,39.6,29.9,2.4,1.3,15.5,5.4,12.6,9.2-4,5.3-26.2,10.6-32.8,11.7,17.6,25.3,45.1,49,73.7,60.9,4,1.7,22.8,7.1,24.9,9.1,1.9,7.3-20.3,15.4-25.6,17.7,15.8,9.9,34.1,16.3,51.9,21.6,32.8,6,65.1,10.7,98.4,12.4,3.9.2,10.7-.4,14.1.6l-.6.2-.6-.5v.6c-8.2.6-25.6,1.3-32.9,4.4-2.1,1.5-4.4,1.9-6.8,2.7v.5c7.1,6.2.7,7.4,9.2,11.6h-.8s.3.5.3.5c-4.6,3.1-8.7,6.7-2,10.4,49-17.8,129.9,2.4,179.1,11.7,40.7,7.7,75.4,11.2,116.4,0-59.4-7-102.2-41.9-160.8-52.5-4.2-.8-15.2-1.4-18.3-3.6,4.7-1.8,13.3-.9,18.5-.8,95.7,1.7,147.6,91,251.1,14.5-17.4-12.6-40.5-40.1-19.7-59.4-33.5-20.5-99.4-66.1-115.5-102.3-4.9-11-8-23-12.4-34.3-38.8-99.9-125.2-157.4-227.3-182.6-12.3-3-24.8-4.7-37.2-7.1,3.2,5.7,32,52.7,16.2,56.4-3.9-2.3-6.2-11.1-7.9-15-23.6-53-61.8-99.1-105-137.3ZM458.4,140.4c14.2,6.8,26.4,13.6,40,21.4,2.6-39.8-5.7-77.8-12.3-116.6-17.3,7.5-25.2,72.7-27.7,95.2Z"/>
  <path class="st2" d="M385.2,114.3c17.4-22.3,59.7-82.1,85-84.3,9.6-.9,15.1,6.3,15.9,15.2-17.3,7.5-25.2,72.7-27.7,95.2-22.9-11.6-48.8-18.5-73.2-26.1Z"/>
  <path class="st2" d="M226.7,13.4c7.9.1,10.6,1.8,15.6,8.4-13.3,16.3-19.9,39-25.7,59-14.8,50.7-18.8,154.8,8,203.6-7.7,4.6-14.9,10.2-22.5,15l-9.3,5.4c-32.4-85.4-25.4-177.1,12.3-259.7,5.1-11.1,9.2-30.6,21.7-31.8Z"/>
  <path class="st0" d="M159.6,192.1c-1.1,3.6-.5,7.2,0,10.9,1,33.8,7.2,78.7,23.3,107.7-8.5,3.8-16.8,7.7-25.7,10.5-18,5.8-29.8,2.2-15.5,18.2,11.2,12.5,25.4,24.9,41.2,31.1-24.9,10.3-39.5-2.2-18.6,24.9,21.2,27.4,51.2,52.9,85.5,61.3-5.3,2.5-22.5,9.1-25.9,12.6.9,10.3,52.6,28.7,62.3,29.8,1.2-2.1,2.2-3.9,2.9-6.2,32.8,6,65.1,10.7,98.4,12.4,3.9.2,10.7-.4,14.1.6l-.6.2-.6-.5v.6c-8.2.6-25.6,1.3-32.9,4.4-2.1,1.5-4.4,1.9-6.8,2.7v.5c7.1,6.2.7,7.4,9.2,11.6h-.8s.3.5.3.5c-4.6,3.1-8.7,6.7-2,10.4-15.9,3-33.9,9.6-47.1,19-54.8,28.1-80.5,72.9-79.8,135.2-12.1-9.7-24.9-18.5-36.6-28.7-62.6-54.6-113.5-126.7-142.7-204.7-9.5-25.2-16.7-54.4-46.2-62.2,6.9-23.1,18.7-43.6,38.4-58.1,4.7-3.4,18.6-7.4,18.2-14.7-.5-8.2-14.6-7.7-20.5-8.3-12.2-1.3-21-4.3-30.6-12.3,40.7-23,72-49.3,107-80.4,7.4-6.5,14-14,21.5-20.3l.3-.3c2.9-3.3,6.6-5.7,10.1-8.4Z"/>
  <path class="st3" d="M320.5,555.2v-1.1c6-5.6,16.1-8.8,23.5-12,3.5-23.3,7.7-26.6-13.5-20.1,11.2-5.3,24.9-9.1,37.1-11.4-2.1,1.5-4.4,1.9-6.8,2.7v.5c7.1,6.2.7,7.4,9.2,11.6h-.8s.3.5.3.5c-4.6,3.1-8.7,6.7-2,10.4-15.9,3-33.9,9.6-47.1,19Z"/>
  <path class="st1" d="M453.8,287.2c53-3.3,102.1,24.8,109.2,80.5-3.7-5.5-7.4-10.9-11.2-16.2-35.9-43.6-72.9-52.9-126.3-59.3,9.4-2.3,18.8-3.7,28.3-5Z"/>
  <path class="st1" d="M483.5,322.4c18-1.6,46.9,13.7,50.6,32.6,1.5,7.3-11.5,8.3-16.3,9.2-44.6,4.7-69.7-35.8-34.3-41.8Z"/>
</svg>